HIERARCHY
ROOT Hips
{
	OFFSET 0.000000 0.000000 0.000000
	CHANNELS 6 Xposition Yposition Zposition Zrotation Yrotation Xrotation 
	JOINT LHipJoint
	{
		OFFSET 0.000000 0.000000 0.000000
		CHANNELS 3 Zrotation Yrotation Xrotation
		JOINT LeftUpLeg
		{
			OFFSET 1.363060 -1.794630 0.839290
			CHANNELS 3 Zrotation Yrotation Xrotation
			JOINT LeftLeg
			{
				OFFSET 2.448110 -6.726130 0.000000
				CHANNELS 3 Zrotation Yrotation Xrotation
				JOINT LeftFoot
				{
					OFFSET 2.562200 -7.039590 0.000000
					CHANNELS 3 Zrotation Yrotation Xrotation
					JOINT LeftToeBase
					{
						OFFSET 0.157640 -0.433110 2.322550
						CHANNELS 3 Zrotation Yrotation Xrotation
						End Site
						{
							OFFSET 0.000000 0.000000 0.000000
						}
					}
				}
			}
		}
	}
	JOINT RHipJoint
	{
		OFFSET 0.000000 0.000000 0.000000
		CHANNELS 3 Zrotation Yrotation Xrotation
		JOINT RightUpLeg
		{
			OFFSET -1.305520 -1.794630 0.839290
			CHANNELS 3 Zrotation Yrotation Xrotation
			JOINT RightLeg
			{
				OFFSET -2.542530 -6.985550 0.000000
				CHANNELS 3 Zrotation Yrotation Xrotation
				JOINT RightFoot
				{
					OFFSET -2.568260 -7.056230 0.000000
					CHANNELS 3 Zrotation Yrotation Xrotation
					JOINT RightToeBase
					{
						OFFSET -0.164730 -0.452590 2.363150
						CHANNELS 3 Zrotation Yrotation Xrotation
						End Site
						{
							OFFSET 0.000000 0.000000 0.000000
						}
					}
				}
			}
		}
	}
	JOINT LowerBack
	{
		OFFSET 0.000000 0.000000 0.000000
		CHANNELS 3 Zrotation Yrotation Xrotation
		JOINT Spine
		{
			OFFSET 0.028270 2.035590 -0.193380
			CHANNELS 3 Zrotation Yrotation Xrotation
			JOINT Spine1
			{
				OFFSET 0.056720 2.048850 -0.042750
				CHANNELS 3 Zrotation Yrotation Xrotation
				JOINT Neck
				{
					OFFSET 0.000000 0.000000 0.000000
					CHANNELS 3 Zrotation Yrotation Xrotation
					JOINT Neck1
					{
						OFFSET -0.054170 1.746240 0.172020
						CHANNELS 3 Zrotation Yrotation Xrotation
						JOINT Head
						{
							OFFSET 0.104070 1.761360 -0.123970
							CHANNELS 3 Zrotation Yrotation Xrotation
							End Site
							{
								OFFSET 0.000000 0.000000 0.000000
							}
						}
					}
				}
				JOINT LeftShoulder
				{
					OFFSET 0.000000 0.000000 0.000000
					CHANNELS 3 Zrotation Yrotation Xrotation
					JOINT LeftArm
					{
						OFFSET 3.362410 1.200890 -0.311210
						CHANNELS 3 Zrotation Yrotation Xrotation
						JOINT LeftForeArm
						{
							OFFSET 4.983000 -0.000000 -0.000000
							CHANNELS 3 Zrotation Yrotation Xrotation
							JOINT LeftHand
							{
								OFFSET 3.483560 -0.000000 -0.000000
								CHANNELS 3 Zrotation Yrotation Xrotation
								JOINT LeftFingerBase
								{
									OFFSET 0.000000 0.000000 0.000000
									CHANNELS 3 Zrotation Yrotation Xrotation
									JOINT LeftHandIndex1
									{
										OFFSET 0.715260 -0.000000 -0.000000
										CHANNELS 3 Zrotation Yrotation Xrotation
										End Site
										{
											OFFSET 0.000000 0.000000 0.000000
										}
									}
								}
								JOINT LThumb
								{
									OFFSET 0.000000 0.000000 0.000000
									CHANNELS 3 Zrotation Yrotation Xrotation
									End Site
									{
										OFFSET 0.000000 0.000000 0.000000
									}
								}
							}
						}
					}
				}
				JOINT RightShoulder
				{
					OFFSET 0.000000 0.000000 0.000000
					CHANNELS 3 Zrotation Yrotation Xrotation
					JOINT RightArm
					{
						OFFSET -3.136600 1.374050 -0.404650
						CHANNELS 3 Zrotation Yrotation Xrotation
						JOINT RightForeArm
						{
							OFFSET -5.241900 -0.000000 -0.000000
							CHANNELS 3 Zrotation Yrotation Xrotation
							JOINT RightHand
							{
								OFFSET -3.444170 -0.000000 -0.000000
								CHANNELS 3 Zrotation Yrotation Xrotation
								JOINT RightFingerBase
								{
									OFFSET 0.000000 0.000000 0.000000
									CHANNELS 3 Zrotation Yrotation Xrotation
									JOINT RightHandIndex1
									{
										OFFSET -0.622530 -0.000000 -0.000000
										CHANNELS 3 Zrotation Yrotation Xrotation
										End Site
										{
											OFFSET 0.000000 0.000000 0.000000
										}
									}
								}
								JOINT RThumb
								{
									OFFSET 0.000000 0.000000 0.000000
									CHANNELS 3 Zrotation Yrotation Xrotation
									End Site
									{
										OFFSET 0.000000 0.000000 0.000000
									}
								}
							}
						}
					}
				}
			}
		}
	}
}
MOTION
Frames: 8
Frame Time: 0.008333
1.110496 17.349655 1.372203 11.102696 -81.437918 0.376735 -10.760240 2.049812 1.866356 -7.398410 11.406670 -18.083828 -2.249452 -0.996084 4.646801 1.189914 9.640095 2.078065 1.864100 0.000000 -45.450401 10.281317 -1.873088 0.877379 2.335697 -12.654451 -16.763386 1.979947 0.093961 10.360717 -1.144316 -6.504317 1.583288 -1.632800 -0.000000 -66.820900 -5.751903 0.217595 -3.734410 -1.831223 0.624488 -4.688607 -5.609687 0.602223 -6.143723 10.141477 -0.198294 5.017121 -2.147310 -0.326218 3.448739 0.000000 0.000000 0.000000 14.011020 2.860156 -4.608636 -81.218196 -50.037807 15.856504 176.731235 -65.399783 179.695089 14.110873 -12.408310 -1.704651 0.010589 1.271439 -0.000000 0.000000 0.000000 0.000000 0.000000 0.000000 0.000000 2.149362 1.645551 -5.647537 80.909956 53.170525 6.967260 -175.878851 56.617382 179.626242 -21.288890 19.854960 -4.069329 0.199130 -1.307471 -0.000000 0.000000 0.000000 0.000000 0.000000 0.000000 0.000000 
1.105826 17.346300 1.333913 11.383790 -82.111812 0.265647 -10.792112 1.967415 1.802826 -7.185793 11.564221 -18.845276 -2.187160 -0.921023 5.985857 1.284820 10.111735 1.648046 1.867301 -0.000000 -45.811600 10.218713 -1.899828 0.996979 2.577885 -12.057170 -17.421306 2.004806 0.033498 11.037806 -1.093369 -6.126849 1.416913 -1.540600 0.000000 -66.750000 -5.849125 0.379990 -3.814909 -1.855396 0.791616 -4.701716 -5.584786 0.766818 -6.111293 10.107848 -0.462704 4.785885 -2.158441 -0.323156 3.381086 0.000000 0.000000 0.000000 13.844474 2.840771 -4.483908 -80.922070 -48.795997 15.658496 176.768504 -65.071846 179.698221 14.101439 -12.227472 -1.680656 0.003177 1.264880 -0.000000 0.000000 0.000000 0.000000 0.000000 0.000000 0.000000 2.003822 1.530588 -5.585644 81.080965 53.140963 6.951108 -175.918850 56.620926 179.626081 -21.357633 19.772974 -4.067218 0.204131 -1.308002 -0.000000 0.000000 0.000000 0.000000 0.000000 0.000000 0.000000 
1.100314 17.342375 1.296729 12.100920 -83.092589 -0.292133 -10.838168 1.894341 1.704498 -6.984474 11.952321 -19.515396 -2.131930 -0.850360 7.199766 1.385069 10.632413 1.257154 1.878600 -0.000000 -46.156300 10.146468 -1.930246 1.158360 2.802778 -11.273930 -18.066110 2.028125 -0.017431 11.634380 -1.025322 -5.669994 1.296716 -1.442399 -0.000000 -66.738000 -5.944884 0.564532 -3.922512 -1.877636 0.980553 -4.721203 -5.543853 0.953693 -6.079773 10.031736 -0.739223 4.557556 -2.192030 -0.321342 3.313791 0.000000 0.000000 0.000000 13.682209 2.805600 -4.350911 -80.685153 -47.206360 15.365702 176.805618 -64.519807 179.702472 13.997457 -12.112282 -1.654043 -0.003129 1.261233 -0.000000 0.000000 0.000000 0.000000 0.000000 0.000000 0.000000 1.912218 1.409890 -5.537758 81.410168 53.209861 7.165311 -175.970850 56.742647 179.625720 -21.454366 19.691798 -4.070500 0.209296 -1.307662 -0.000000 0.000000 0.000000 0.000000 0.000000 0.000000 0.000000 
1.093582 17.338008 1.261054 13.598723 -84.428162 -1.640569 -10.895328 1.840993 1.573595 -6.789531 12.588525 -20.072319 -2.087578 -0.783258 8.248364 1.491358 11.203990 0.903300 1.897600 0.000000 -46.471400 10.066335 -1.956178 1.361730 3.012794 -10.292103 -18.688557 2.050002 -0.053201 12.132400 -0.937044 -5.124474 1.232841 -1.337600 0.000000 -66.780700 -6.035768 0.764866 -4.063516 -1.894865 1.184775 -4.747530 -5.478912 1.156559 -6.046279 9.919627 -1.026776 4.327534 -2.250161 -0.320885 3.245719 0.000000 0.000000 0.000000 13.570927 2.783501 -4.208488 -80.564005 -45.197617 14.948194 176.835952 -63.732957 179.707424 13.809969 -12.083908 -1.628603 -0.007892 1.261226 -0.000000 0.000000 0.000000 0.000000 0.000000 0.000000 0.000000 1.887736 1.284743 -5.513959 81.939459 53.389501 7.677566 -176.037969 56.996446 179.625073 -21.592945 19.614556 -4.082273 0.215142 -1.306479 -0.000000 0.000000 0.000000 0.000000 0.000000 0.000000 0.000000 
1.085197 17.333294 1.227282 16.992623 -86.204389 -4.894087 -10.948380 1.833076 1.418597 -6.584781 13.484183 -20.499286 -2.059334 -0.712658 9.098704 1.607048 11.833901 0.578471 1.923200 -0.000000 -46.740300 9.991776 -1.953370 1.601561 3.217419 -9.096940 -19.277800 2.069312 -0.064049 12.524118 -0.822616 -4.473474 1.239277 -1.224600 -0.000000 -66.866200 -6.103121 0.988282 -4.245631 -1.901697 1.409292 -4.782790 -5.381228 1.380511 -6.011013 9.778633 -1.326398 4.089745 -2.333374 -0.321804 3.175569 0.000000 0.000000 0.000000 13.557315 2.795065 -4.053425 -80.598842 -42.699716 14.353433 176.849175 -62.710358 179.712365 13.564419 -12.171825 -1.610827 -0.010609 1.265673 -0.000000 0.000000 0.000000 0.000000 0.000000 0.000000 0.000000 1.935468 1.164253 -5.522414 82.710267 53.680153 8.550306 -176.124572 57.392248 179.624113 -21.783288 19.539709 -4.104234 0.222246 -1.304549 -0.000000 0.000000 0.000000 0.000000 0.000000 0.000000 0.000000 
1.074695 17.328378 1.195832 28.658856 -88.740770 -16.430025 -10.848021 1.985561 1.273973 -6.289877 14.670025 -20.809136 -2.063391 -0.605943 9.723366 1.747848 12.555041 0.260105 1.954500 0.000000 -46.957700 10.066817 -1.807760 1.863273 3.496833 -7.637853 -19.817830 2.076069 -0.017913 12.819240 -0.664988 -3.678346 1.350029 -1.101200 -0.000000 -66.994200 -5.958056 1.321584 -4.500279 -1.863672 1.718055 -4.837300 -5.246550 1.691678 -5.975961 9.609375 -1.636471 3.834137 -2.441673 -0.323980 3.102098 0.000000 0.000000 0.000000 13.679343 2.886913 -3.878887 -80.821188 -39.639444 13.500238 176.828309 -61.456342 179.716699 13.296496 -12.352968 -1.601200 -0.010698 1.273628 -0.000000 0.000000 0.000000 0.000000 0.000000 0.000000 0.000000 2.044211 1.098763 -5.569244 83.769029 54.069677 9.844348 -176.238108 57.938222 179.622777 -22.030149 19.467375 -4.137578 0.231335 -1.302518 -0.000000 0.000000 0.000000 0.000000 0.000000 0.000000 0.000000 
1.061810 17.323381 1.166974 -42.006222 -88.318042 54.465764 -9.775774 1.478331 0.718492 -5.509119 15.721130 -20.912004 -1.976742 -0.844255 10.428036 1.747675 12.936859 0.052443 1.991701 0.000000 -47.120500 11.064403 -2.243631 2.454938 4.252556 -6.312905 -20.434986 2.178813 -0.306734 12.665401 -0.648724 -3.161545 1.432210 -0.962800 -0.000000 -67.155500 -4.509869 0.899174 -4.612485 -1.490838 1.178484 -4.823085 -5.131078 1.208026 -5.940610 9.480669 -1.959207 3.570309 -2.550988 -0.325622 3.021893 0.000000 0.000000 0.000000 13.889514 2.578763 -3.647249 -81.272703 -36.108453 12.363599 176.833165 -60.060472 179.721220 13.042210 -12.626143 -1.603986 -0.015662 1.287700 -0.000000 0.000000 0.000000 0.000000 0.000000 0.000000 0.000000 2.143772 0.659235 -5.701740 85.016753 54.399367 11.481680 -176.272400 58.575983 179.619596 -22.341683 19.391733 -4.180595 0.235203 -1.296270 -0.000000 0.000000 0.000000 0.000000 0.000000 0.000000 0.000000 
1.050573 17.318447 1.133871 174.099866 -87.631508 -161.604846 -10.961698 1.265098 0.237100 -5.936349 18.191773 -20.396888 -2.028964 -0.820791 10.251626 1.813881 13.578473 0.031209 2.038700 -0.000000 -47.400700 9.905620 -2.513605 2.919977 3.496831 -3.757356 -21.001252 2.157635 -0.317890 12.973743 -0.478392 -2.177805 1.574809 -0.803000 -0.000000 -67.324701 -6.145220 0.993101 -4.793746 -1.778372 1.434454 -4.873400 -4.834761 1.431528 -5.966224 9.340324 -2.285628 3.304708 -2.685796 -0.330493 2.939259 0.000000 0.000000 0.000000 14.395621 2.526041 -3.398932 -81.598919 -31.892329 10.593123 176.648505 -58.405751 179.721790 12.872306 -12.946422 -1.619894 -0.007753 1.296516 -0.000000 0.000000 0.000000 0.000000 0.000000 0.000000 0.000000 2.434285 0.660732 -5.821314 86.828875 54.847256 13.699681 -176.476187 59.395619 179.619325 -22.692831 19.301589 -4.230050 0.251858 -1.293221 -0.000000 0.000000 0.000000 0.000000 0.000000 0.000000 0.000000 
